# xmcd
#
# Track frame offsets:
#	150
#	9427
#	33080
#	61132
#	89660
#	120900
#	133825
#	149065
#	181727
#	206147
#	220530
#	228760
#	257050
#	288005
#	307535
#	312392
#
# Disc length: 4454 seconds
#
# Revision: 1
# Processed by: cddbd v1.5.1PL0 Copyright (c) Steve Scherf et al.
# Submitted via: CDex 1.50Beta5
#
DISCID=d3116410
DTITLE=バッハその他 - ARIA
DYEAR=1900
DGENRE=Classical
TTITLE0=リイサ・ソインネ/ゴルトベルク変奏曲
TTITLE1=バイヤール室内管弦楽団/G線上のアリア (弦楽合奏版)
TTITLE2=アリア 「組曲ヘ長調」より
TTITLE3=アリア 「リュートのための古風な舞曲とアリア」より
TTITLE4=亡き女王のためのパヴァーヌ
TTITLE5=アリア 「水上の音楽」より
TTITLE6=シャコンヌ風邪のアリア
TTITLE7=ベルリン・フィルの12人のチェリスト達/アリア 「ブラジル風のバッハ第 5 番」より
TTITLE8=ヨウコ・ハルヤンネ、マルック・ヒエタハルユ/G線上のアリア (トランペット and オルガン版)
TTITLE9=館野泉/アリア
TTITLE10=優しいアリア
TTITLE11=アリア 「ホルベルク組曲」より
TTITLE12=ジムノペディ第 1 番、第 3 番
TTITLE13=アルト・ノラス、タバニ・ヴァルスタ/G線上のアリア (チェロ and オルガン版)
TTITLE14=トラジコメディア/タバコのアリア 「アンナ・マグダレーナ・バッハの音楽帳」より
TTITLE15=トラジコメディア/アリア (ゴクトベルク変奏曲のアリア) 「アンナ・マグダレーナ・バッハの音楽帳」より
EXTD=
EXTT0=
EXTT1=
EXTT2=
EXTT3=
EXTT4=
EXTT5=
EXTT6=
EXTT7=
EXTT8=
EXTT9=
EXTT10=
EXTT11=
EXTT12=
EXTT13=
EXTT14=
EXTT15=
PLAYORDER=
